<svg width="30" height="30" viewBox="0 0 30 30" fill="none" xmlns="http://www.w3.org/2000/svg">
<path d="M10.1543 4.84863C10.6975 4.74995 11.2176 5.11006 11.3164 5.65332C11.4152 6.19662 11.055 6.71751 10.5117 6.81641C9.53083 6.99495 8.86413 7.35901 8.40234 7.8125C7.93738 8.26916 7.61959 8.87549 7.43848 9.63281C7.06712 11.1861 7.30267 13.2311 7.86328 15.3721C8.41661 17.4851 9.25204 19.5651 9.95605 21.127C10.0008 21.2262 10.0473 21.3222 10.0908 21.417L11.8828 15.2461C12.0369 14.7158 12.5917 14.4105 13.1221 14.5645C13.6522 14.7186 13.9567 15.2735 13.8027 15.8037L11.293 24.4473C11.1388 24.9773 10.5839 25.2819 10.0537 25.1279L1.41113 22.6182C0.880833 22.4641 0.575488 21.9092 0.729492 21.3789C0.88362 20.8487 1.43848 20.5443 1.96875 20.6982L8.41895 22.5713C8.32693 22.3745 8.23114 22.1664 8.13281 21.9482C7.40466 20.3328 6.52113 18.1412 5.92871 15.8789C5.34359 13.6444 5.00521 11.209 5.49316 9.16797C5.74173 8.12838 6.2129 7.15973 7.00098 6.38574C7.79229 5.60858 8.84396 5.08706 10.1543 4.84863ZM18.707 5.55273C18.8612 5.02266 19.4161 4.7181 19.9463 4.87207L28.5889 7.38184C29.119 7.536 29.4245 8.09084 29.2705 8.62109C29.1164 9.15115 28.5614 9.45555 28.0312 9.30176L21.5811 7.42871C21.673 7.62545 21.7689 7.83368 21.8672 8.05176C22.5953 9.66716 23.4789 11.8589 24.0713 14.1211C24.6564 16.3555 24.9948 18.7911 24.5068 20.832C24.2583 21.8716 23.7871 22.8403 22.999 23.6143C22.2077 24.3914 21.156 24.9129 19.8457 25.1514C19.3025 25.2501 18.7825 24.8899 18.6836 24.3467C18.5848 23.8034 18.945 23.2825 19.4883 23.1836C20.4691 23.005 21.1359 22.641 21.5977 22.1875C22.0626 21.7309 22.3804 21.1244 22.5615 20.3672C22.9329 18.8139 22.6973 16.7688 22.1367 14.6279C21.5834 12.5149 20.7479 10.4349 20.0439 8.87305C19.9992 8.77385 19.9526 8.6777 19.9092 8.58301L18.1172 14.7539C17.9631 15.2841 17.4082 15.5894 16.8779 15.4355C16.3478 15.2814 16.0434 14.7265 16.1973 14.1963L18.707 5.55273Z" fill="#E4E4E4"/>
</svg>
